<svg xmlns="http://www.w3.org/2000/svg" xmlns:xlink="http://www.w3.org/1999/xlink" aria-hidden="true" role="img" class="iconify iconify--logos" width="256" height="256" preserveAspectRatio="xMidYMid meet" viewBox="0 0 256 256"><defs><linearGradient id="IconifyId1813088fe1fbc023fb454" x1="-.828%" x2="57.636%" y1="7.652%" y2="78.411%"><stop offset="0%" stop-color="#41D1FF"></stop><stop offset="100%" stop-color="#BD34FE"></stop></linearGradient><linearGradient id="IconifyId1813088fe1fbc023fb455" x1="43.376%" x2="50.316%" y1="2.242%" y2="89.03%"><stop offset="0%" stop-color="#FFEA83"></stop><stop offset="8.333%" stop-color="#FFDD35"></stop><stop offset="100%" stop-color="#FFA800"></stop></linearGradient></defs><path fill="url(#IconifyId1813088fe1fbc023fb454)" d="M255.153 37.342L138.54 252.382c-2.46 4.32-8.28 5.94-12.6 3.48l-23.34-13.38c-4.32-2.46-5.94-8.28-3.48-12.6l93.24-164.04c2.46-4.32 8.28-5.94 12.6-3.48l23.34 13.38c4.32 2.46 5.88 8.28 3.42 12.6z"></path><path fill="url(#IconifyId1813088fe1fbc023fb455)" d="M118.324 3.062L8.564 188.042c-2.16 3.72-7.02 5.04-10.68 2.88L.844 184.982c-3.72-2.16-5.04-7.02-2.88-10.68l109.8-184.98c2.16-3.72 7.02-5.04 10.68-2.88l8.04 4.62c3.72 2.16 5.04 7.02 2.88 10.68z"></path></svg>